<?xml version="1.0" encoding="utf-8"?>
<!-- Generator: Adobe Illustrator 16.0.0, SVG Export Plug-In . SVG Version: 6.00 Build 0)  -->
<!DOCTYPE svg PUBLIC "-//W3C//DTD SVG 1.1//EN" "http://www.w3.org/Graphics/SVG/1.1/DTD/svg11.dtd">
<svg version="1.1" xmlns="http://www.w3.org/2000/svg" xmlns:xlink="http://www.w3.org/1999/xlink" x="0px" y="0px" width="50px"
	 height="50px" viewBox="0 0 50 50" enable-background="new 0 0 50 50" xml:space="preserve">
<g id="InfoBack">
</g>
<g id="Characters">
	<g>
		<circle fill="#FFEED9" stroke="#FFFFFF" stroke-width="1.098" stroke-miterlimit="10" cx="24.957" cy="25.102" r="23.714"/>
		<g>
			<defs>
				<path id="SVGID_38_" d="M48.67,24.346c0.059,13.098-10.511,23.842-23.608,23.902C11.966,48.306,1.301,37.656,1.243,24.559
					C1.184,11.461,11.754,0.796,24.851,0.738C37.947,0.678,48.612,11.25,48.67,24.346z"/>
			</defs>
			<clipPath id="SVGID_2_">
				<use xlink:href="#SVGID_38_"  overflow="visible"/>
			</clipPath>
			<g clip-path="url(#SVGID_2_)">
				<linearGradient id="SVGID_3_" gradientUnits="userSpaceOnUse" x1="12.7388" y1="25.8496" x2="16.0239" y2="25.8496">
					<stop  offset="0" style="stop-color:#FBB16B"/>
					<stop  offset="0.9996" style="stop-color:#EFBC84"/>
				</linearGradient>
				<path fill="url(#SVGID_3_)" d="M15.71,24.031c0,0-1.607-1.514-2.593-0.199c-0.985,1.318-0.056,5.658,2.907,4.32
					C15.969,24.812,15.71,24.031,15.71,24.031z"/>
				<linearGradient id="SVGID_4_" gradientUnits="userSpaceOnUse" x1="33.3584" y1="25.3311" x2="36.5049" y2="25.3311">
					<stop  offset="0" style="stop-color:#FBB16B"/>
					<stop  offset="0.9996" style="stop-color:#EFBC84"/>
				</linearGradient>
				<path fill="url(#SVGID_4_)" d="M33.358,27.838l0.172-4.096c0,0,1.625-1.928,2.623-0.301
					C37.154,25.068,35.952,28.242,33.358,27.838z"/>
				<path fill="#0080C2" d="M13.986,53.045c0,0-1.577-13.348,2.047-14.047c3.624-0.698,3.817,4.378,8.744,4.355
					c4.928-0.021,6.159-4.975,8.631-4.219c3.166,0.967,2.017,14.156,2.017,14.156s-5.927,0.966-10.833,0.988
					C19.686,54.299,13.986,53.045,13.986,53.045z"/>
				
					<linearGradient id="SVGID_5_" gradientUnits="userSpaceOnUse" x1="36.6978" y1="11.4844" x2="36.6978" y2="6.2811" gradientTransform="matrix(1 -0.0045 0.0045 1 -11.9189 31.0112)">
					<stop  offset="0" style="stop-color:#F6C181"/>
					<stop  offset="0.2831" style="stop-color:#F2BB7D"/>
					<stop  offset="0.6533" style="stop-color:#E6AB70"/>
					<stop  offset="1" style="stop-color:#D79560"/>
				</linearGradient>
				<path fill="url(#SVGID_5_)" d="M27.297,42.857c0,0-1.081,0.852-2.491,0.859c-1.408,0.006-2.437-0.838-2.437-0.838l-0.027-6.17
					l4.927-0.021L27.297,42.857z"/>
				
					<linearGradient id="SVGID_6_" gradientUnits="userSpaceOnUse" x1="36.6406" y1="-15.5684" x2="36.6406" y2="-6.348" gradientTransform="matrix(1 -0.0045 0.0045 1 -11.9189 31.0112)">
					<stop  offset="0" style="stop-color:#FBB16B"/>
					<stop  offset="0.9996" style="stop-color:#EFBC84"/>
				</linearGradient>
				<path fill="url(#SVGID_6_)" d="M15.881,24.107c0.013,2.775,0.109,5.293,0.5,6.911c0.392,1.619,5.323,7.188,8.608,7.173
					c3.285-0.017,7.571-5.41,8.029-7.801c0.458-2.393,0.487-5.38,0.483-6.404c-0.005-1.025-0.938-9.34-4.525-10.135
					c-3.587-0.795-6.873-0.864-9.258,0.342C17.336,15.398,15.864,20.312,15.881,24.107z"/>
				
					<linearGradient id="SVGID_7_" gradientUnits="userSpaceOnUse" x1="39.0664" y1="0.4785" x2="36.0434" y2="-0.9197" gradientTransform="matrix(1 -0.0045 0.0045 1 -11.9189 31.0112)">
					<stop  offset="3.587400e-04" style="stop-color:#DA9460"/>
					<stop  offset="0.9992" style="stop-color:#EEB77D"/>
				</linearGradient>
				<path fill="url(#SVGID_7_)" d="M24.594,32.24c0,0,3.097-1.773,2.597-2.465C26.692,29.084,25.05,30.2,25.05,30.2l-0.296-2.075
					C24.754,28.125,23.827,31.188,24.594,32.24z"/>
				
					<ellipse transform="matrix(0.9967 0.0814 -0.0814 0.9967 2.4421 -1.538)" fill="#F3AC76" cx="20.076" cy="29.17" rx="2.608" ry="1.138"/>
				
					<ellipse transform="matrix(0.9827 -0.185 0.185 0.9827 -4.8732 5.9756)" fill="#F3AC76" cx="29.589" cy="29.105" rx="2.608" ry="1.137"/>
				<path fill="#FFFFFF" d="M22.826,26.668c0,0,0.114-3.038-2.062-3.029c-2.176,0.01-3.174,1.535-3.174,1.535
					s-0.49,2.002,2.774,1.986C22.252,27.15,22.826,26.668,22.826,26.668z"/>
				<path fill="#FFFFFF" d="M26.922,26.684c0,0,0.243-2.913,2.611-2.924c1.808-0.01,2.692,1.045,2.692,1.045
					s-0.553,2.634-2.441,2.643C27.287,27.458,26.922,26.684,26.922,26.684z"/>
				<path fill="#702C0A" d="M23.741,21.387l-0.465,1.047c0,0-2.5-1.034-3.674-1.029c-1.173,0.005-2.273,0.863-2.273,0.863
					l-0.001-0.33c0,0,1.121-0.977,2.294-0.982C20.795,20.951,23.741,21.387,23.741,21.387z"/>
				<path fill="#702C0A" d="M26.158,22.561c-0.064-0.084-0.346-0.885-0.346-0.885s2.983-0.76,4.349-0.766s2.159,1.079,2.159,1.079
					l-0.233,0.276c0,0-1.05-0.891-1.946-0.887C29.245,21.384,26.158,22.561,26.158,22.561z"/>
				
					<linearGradient id="SVGID_9_" gradientUnits="userSpaceOnUse" x1="32.4536" y1="-6.3623" x2="32.4536" y2="-3.5807" gradientTransform="matrix(1 -0.0045 0.0045 1 -11.9189 31.0112)">
					<stop  offset="0" style="stop-color:#52997C"/>
					<stop  offset="1" style="stop-color:#18B251"/>
				</linearGradient>
				<path fill="url(#SVGID_9_)" d="M22.252,25.393c0.003,0.961-0.771,1.742-1.733,1.746c-0.961,0.006-1.745-0.77-1.749-1.73
					c-0.004-0.963,0.771-1.746,1.733-1.748C21.465,23.654,22.247,24.43,22.252,25.393z"/>
				<path fill="#472205" d="M17.748,25.957c0,0-0.675-0.551-0.853-1.096c0.827-1.203,2.518-1.676,3.846-1.682
					s2.144,1.335,2.084,3.025c-0.217-1.583-1.034-2.395-2.28-2.389c-1.249,0.006-2.047,0.537-2.955,1.357
					C17.615,25.562,17.748,25.957,17.748,25.957z"/>
				
					<linearGradient id="SVGID_10_" gradientUnits="userSpaceOnUse" x1="41.2407" y1="-6.6172" x2="41.2407" y2="-3.834" gradientTransform="matrix(1 -0.0045 0.0045 1 -11.9189 31.0112)">
					<stop  offset="0" style="stop-color:#52997C"/>
					<stop  offset="1" style="stop-color:#18B251"/>
				</linearGradient>
				<circle fill="url(#SVGID_10_)" cx="29.299" cy="25.709" r="1.741"/>
				<path fill="#DC9654" d="M24.991,24.355c-0.017,0.246-0.019,0.49-0.028,0.736l-0.017,0.734c-0.006,0.245-0.01,0.49-0.01,0.734
					c0.001,0.242-0.004,0.486,0.003,0.73c0.01,0.486,0.023,0.971,0.073,1.447c0.012,0.119,0.019,0.242,0.038,0.357
					c0.017,0.118,0.029,0.236,0.052,0.353l0.07,0.345l0.095,0.332l-0.34-0.117c0.202-0.125,0.408-0.244,0.621-0.352
					c0.215-0.107,0.436-0.21,0.68-0.275c0.123-0.033,0.247-0.062,0.385-0.068c0.135-0.006,0.285-0.004,0.436,0.066
					c0.155,0.071,0.272,0.201,0.332,0.357c0.017,0.033,0.049,0.169,0.04,0.238c0,0.078-0.017,0.154-0.041,0.222
					c-0.1,0.272-0.274,0.453-0.451,0.618c-0.18,0.164-0.37,0.307-0.566,0.436c-0.396,0.254-0.809,0.473-1.24,0.646
					c0.383-0.26,0.76-0.529,1.108-0.826c0.173-0.146,0.341-0.298,0.488-0.463c0.142-0.163,0.28-0.343,0.323-0.516
					c0.012-0.041,0.017-0.082,0.012-0.115c0.001-0.022-0.004-0.032-0.006-0.041c0.003-0.004-0.009-0.034-0.021-0.062
					c-0.031-0.053-0.078-0.105-0.138-0.125c-0.061-0.027-0.151-0.029-0.244-0.02c-0.094,0.006-0.194,0.035-0.293,0.064
					c-0.401,0.137-0.799,0.361-1.179,0.603l-0.258,0.163l-0.081-0.282l-0.106-0.377l-0.071-0.375
					c-0.021-0.124-0.032-0.251-0.05-0.376c-0.017-0.125-0.023-0.25-0.032-0.375c-0.018-0.25-0.017-0.498-0.02-0.748
					c0.001-0.246,0.005-0.496,0.022-0.74c0.005-0.129,0.014-0.248,0.024-0.375c0.011-0.119,0.016-0.246,0.031-0.365
					c0.025-0.246,0.055-0.492,0.086-0.736C24.788,25.32,24.863,24.832,24.991,24.355z"/>
				<path fill="#B73A09" d="M20.802,32.086c0,0,1.941,1.176,4.085,1.453c2.146,0.279,4.078-0.657,4.078-0.657
					s-0.453,0.304-1.015,0.73c-0.709,0.537-1.673,1.224-3.057,1.229c-1.647,0.008-2.301-0.531-2.886-1.608
					C21.666,32.607,20.802,32.086,20.802,32.086z"/>
				<path fill="#DE8249" d="M20.39,32.35c0,0-0.021-0.645,0.824-0.646C20.694,32.043,20.39,32.35,20.39,32.35z"/>
				<path fill="#DE8249" d="M28.942,32.557l0.205,0.428C29.147,32.984,29.348,32.615,28.942,32.557z"/>
				<path fill="#702C0A" d="M16.043,28.714c0.107-0.137-3.571-5.911-3.449-7.493c0.121-1.578,3.351-7.097,5.47-6.753
					c2.032-4.265,9.599-12.941,15.71-8.275c6.112,4.669,2.748,11.04,1.464,12.497c0.891,1.275,0.91,4.615-1.787,7.863
					c-0.599-4.439-0.774-5.762-0.774-5.762s-2.557,0.949-4.663-2.541c-2.105-3.49-4.898-5.189-9.251-3.332
					c-1.372,3.425-2.544,8.366-2.544,8.366L16.043,28.714z"/>
				<path fill="#FFFFFF" d="M20.848,42.238l1.508-2.223l2.413,1.559l-1.258,2.355C23.511,43.93,21.628,43.193,20.848,42.238z"/>
				<path fill="#FFFFFF" d="M25.853,41.536l0.97,2.38c0,0,1.418-0.766,1.766-1.787c-0.851-1.049-1.305-2.217-1.305-2.217
					L25.853,41.536z"/>
				<path fill="#DEDEDE" d="M25.853,41.536l-0.694,2.159l-0.39-2.121l-1.058,1.98c0,0,0.359,0.277,1.416,0.273
					c1.056-0.004,1.471-0.466,1.471-0.466L25.853,41.536z"/>
				<path fill="#472205" d="M26.991,26.258c0,0,0.102-2.902,2.636-2.914c2.303-0.012,3.124,0.963,3.124,0.963l-0.829,1.498
					l0.304-0.951c0,0-0.995-0.822-2.563-0.816C28.093,24.043,27.348,24.938,26.991,26.258z"/>
				<path fill="#512202" d="M29.831,8.07c-4.908-0.934-10.363,4.982-11.356,6.119l-0.163-0.211
					c-0.069,0.129-0.134,0.255-0.194,0.377l0.419,0.543c-0.683,0.883-4.176,5.457-4.368,6.451c-0.143,0.748,1.098,3.467,1.945,5.201
					l0.027-0.833c-0.787-1.661-1.699-3.755-1.593-4.298c0.139-0.725,2.627-4.104,3.97-5.867c0.082-0.217,0.164-0.429,0.247-0.635
					c0.1-0.046,0.198-0.083,0.297-0.123c1.087-0.875,6.281-4.693,9.91-0.779c1.227,1.326,1.872,2.607,2.441,3.738
					c0.562,1.121,1.044,2.078,1.928,2.621c-0.296,0.187-0.572,0.338-0.801,0.457c0.089-0.022,0.139-0.041,0.139-0.041
					s0.015,0.113,0.05,0.377c0.288-0.146,2.328-1.599,2.731-2.08c-0.059-0.133-0.125-0.255-0.198-0.365
					c-0.456,0.572-1.022,1.046-1.562,1.416c-0.887-0.456-1.343-1.357-1.945-2.557c-0.552-1.098-1.238-2.463-2.501-3.826
					c-3.928-4.236-9.499-0.023-10.501,0.795l-0.04-0.052c0.799-0.909,6.314-6.951,11.046-6.053c3.543,0.675,5.456,5.919,6.289,9.046
					c0.091-0.164,0.181-0.336,0.269-0.521C35.418,13.733,33.463,8.762,29.831,8.07z"/>
				<path opacity="0.3" fill="#FFFFFF" d="M16.657,25.993c0,0,3.307,0.212,7.104-0.031c-0.085,1.312-0.721,2.21-3.087,2.732
					C18.309,29.219,17.271,28.551,16.657,25.993z"/>
				<path opacity="0.3" fill="#FFFFFF" d="M25.982,25.702c0,0,4.698,0.706,6.968,0.218c-0.154,1.441-0.467,2.881-0.467,2.881
					s-4.38-0.191-6.053-0.895C26.104,26.271,25.982,25.702,25.982,25.702z"/>
				<path fill="#0F79A3" d="M26.242,22.611l-0.834,1.021c-0.829,0.455-1.051-0.215-1.051-0.215
					c-0.163-0.477-0.357-0.865-0.463-0.891c-0.169-0.039-8.489-0.735-8.489-0.735l-0.325,0.165l-0.196,0.75l0.377,0.285
					c0,0,0.269,1.064,0.598,1.873c0.328,0.811,0.989,3.462,1.844,3.865c0.854,0.4,4.844,0.059,5.565-0.797
					c0.539-0.639,0.941-1.992,1.16-3.097c0.963-0.782,1.229,0.228,1.229,0.228l0,0c0.247,1.156,0.4,2.693,0.631,2.961
					c0.348,0.406,5.984,1.398,6.397,1c0.415-0.398,0.504-5.09,0.5-5.654c-0.003-0.566,0.478-0.287,0.478-0.287l-0.005-1.168
					C33.658,21.916,26.677,22.441,26.242,22.611z M23.047,27.427c-0.575,0.793-4.589,1.45-5.265,0.692
					c-0.677-0.758-1.643-4.883-1.365-5.486c0.212-0.459,6.61,0.203,7.268,0.626C24.342,23.682,23.623,26.631,23.047,27.427z
					 M32.248,28.416c-0.365,0.365-5.217-0.373-5.538-0.705c-0.323-0.336-0.761-3.866-0.539-4.164
					c0.333-0.449,6.225-1.408,6.572-0.805C33.09,23.346,32.612,28.049,32.248,28.416z"/>
				<path fill="#009BD8" d="M17.849,50.793c-0.025-0.252-0.045-0.514-0.059-0.775l0.384-0.02c0.012,0.258,0.031,0.51,0.057,0.756
					L17.849,50.793z M18.157,49.242l-0.384-0.002c0.001-0.258,0.009-0.519,0.023-0.777l0.384,0.021
					C18.166,48.738,18.158,48.99,18.157,49.242z M18.24,47.728l-0.381-0.04c0.026-0.254,0.06-0.514,0.099-0.771l0.379,0.06
					C18.298,47.227,18.266,47.479,18.24,47.728z M18.469,46.227l-0.376-0.076c0.051-0.252,0.108-0.508,0.171-0.758l0.372,0.094
					C18.576,45.73,18.519,45.98,18.469,46.227z M18.835,44.752l-0.368-0.109c0.073-0.244,0.154-0.494,0.237-0.74l0.364,0.128
					C18.985,44.268,18.907,44.512,18.835,44.752z M19.331,43.318l-0.357-0.143c0.095-0.24,0.196-0.48,0.301-0.717l0.351,0.157
					C19.521,42.848,19.422,43.084,19.331,43.318z M19.952,41.93l-0.342-0.174c0.224-0.438,0.396-0.715,0.403-0.727l0.285,0.286
					C20.295,41.317,20.167,41.511,19.952,41.93z"/>
				<path fill="#009BD8" d="M31.366,50.7l-0.38-0.046c0.031-0.258,0.06-0.512,0.082-0.758l0.382,0.033
					C31.427,50.183,31.399,50.439,31.366,50.7z M31.509,49.16l-0.384-0.025c0.017-0.258,0.027-0.512,0.035-0.762l0.383,0.012
					C31.536,48.637,31.525,48.895,31.509,49.16z M31.167,47.611c-0.002-0.258-0.007-0.513-0.018-0.76l0.384-0.016
					c0.009,0.252,0.015,0.51,0.018,0.775H31.167z M31.105,46.092c-0.021-0.26-0.045-0.514-0.073-0.756l0.382-0.045
					c0.028,0.248,0.052,0.506,0.073,0.771L31.105,46.092z M30.932,44.582c-0.041-0.264-0.083-0.514-0.13-0.75l0.377-0.074
					c0.047,0.242,0.091,0.498,0.132,0.765L30.932,44.582z M30.643,43.09c-0.06-0.252-0.125-0.498-0.193-0.734l0.37-0.108
					c0.069,0.243,0.136,0.495,0.197,0.752L30.643,43.09z M30.221,41.633c-0.158-0.452-0.242-0.633-0.244-0.639l0.292-0.273
					c0.005,0.01,0.149,0.311,0.314,0.786L30.221,41.633z"/>
			</g>
		</g>
	</g>
</g>
</svg>
